/usr/bin/start-video-rec.sh: line 93: kill: (599) - No such process
ffmpeg version 2.8.17-0ubuntu0.1 Copyright (c) 2000-2020 the FFmpeg developers
  built with gcc 5.4.0 (Ubuntu 5.4.0-6ubuntu1~16.04.12) 20160609
  configuration: --prefix=/usr --extra-version=0ubuntu0.1 --build-suffix=-ffmpeg --toolchain=hardened --libdir=/usr/lib/x86_64-linux-gnu --incdir=/usr/include/x86_64-linux-gnu --cc=cc --cxx=g++ --enable-gpl --enable-shared --disable-stripping --disable-decoder=libopenjpeg --disable-decoder=libschroedinger --enable-avresample --enable-avisynth --enable-gnutls --enable-ladspa --enable-libass --enable-libbluray --enable-libbs2b --enable-libcaca --enable-libcdio --enable-libflite --enable-libfontconfig --enable-libfreetype --enable-libfribidi --enable-libgme --enable-libgsm --enable-libmodplug --enable-libmp3lame --enable-libopenjpeg --enable-libopus --enable-libpulse --enable-librtmp --enable-libschroedinger --enable-libshine --enable-libsnappy --enable-libsoxr --enable-libspeex --enable-libssh --enable-libtheora --enable-libtwolame --enable-libvorbis --enable-libvpx --enable-libwavpack --enable-libwebp --enable-libx265 --enable-libxvid --enable-libzvbi --enable-openal --enable-opengl --enable-x11grab --enable-libdc1394 --enable-libiec61883 --enable-libzmq --enable-frei0r --enable-libx264 --enable-libopencv
  libavutil      54. 31.100 / 54. 31.100
  libavcodec     56. 60.100 / 56. 60.100
  libavformat    56. 40.101 / 56. 40.101
  libavdevice    56.  4.100 / 56.  4.100
  libavfilter     5. 40.101 /  5. 40.101
  libavresample   2.  1.  0 /  2.  1.  0
  libswscale      3.  1.101 /  3.  1.101
  libswresample   1.  2.101 /  1.  2.101
  libpostproc    53.  3.100 / 53.  3.100
Input #0, matroska,webm, from '/home/seluser/videos/vid_chrome_or_firefox_40000.mkv':
  Metadata:
    ENCODER         : Lavf56.40.101
  Duration: 00:02:12.00, start: 0.000000, bitrate: 113 kb/s
    Stream #0:0: Video: h264 (Constrained Baseline), yuv420p, 1366x768, SAR 1:1 DAR 683:384, 10 fps, 10 tbr, 1k tbn, 20 tbc (default)
    Metadata:
      ENCODER         : Lavc56.60.100 libx264
      DURATION        : 00:02:12.000000000
[libx264 @ 0x1f157a0] using SAR=1/1
[libx264 @ 0x1f157a0] using cpu capabilities: MMX2 SSE2Fast SSSE3 SSE4.2 AVX FMA3 AVX2 LZCNT BMI2
[libx264 @ 0x1f157a0] profile Constrained Baseline, level 3.2
[libx264 @ 0x1f157a0] 264 - core 148 r2643 5c65704 - H.264/MPEG-4 AVC codec - Copyleft 2003-2015 - http://www.videolan.org/x264.html - options: cabac=0 ref=1 deblock=0:0:0 analyse=0:0 me=dia subme=0 psy=1 psy_rd=1.00:0.00 mixed_ref=0 me_range=16 chroma_me=1 trellis=0 8x8dct=0 cqm=0 deadzone=21,11 fast_pskip=1 chroma_qp_offset=0 threads=3 lookahead_threads=1 sliced_threads=0 nr=0 decimate=1 interlaced=0 bluray_compat=0 constrained_intra=0 bframes=0 weightp=0 keyint=250 keyint_min=10 scenecut=0 intra_refresh=0 rc=crf mbtree=0 crf=23.0 qcomp=0.60 qpmin=0 qpmax=69 qpstep=4 ip_ratio=1.40 aq=0
Output #0, mp4, to '/home/seluser/videos/vid_chrome_or_firefox_40000.mp4':
  Metadata:
    encoder         : Lavf56.40.101
    Stream #0:0: Video: h264 (libx264) ([33][0][0][0] / 0x0021), yuv420p, 1366x768 [SAR 1:1 DAR 683:384], q=-1--1, 10 fps, 10240 tbn, 10 tbc (default)
    Metadata:
      DURATION        : 00:02:12.000000000
      encoder         : Lavc56.60.100 libx264
Stream mapping:
  Stream #0:0 -> #0:0 (h264 (native) -> h264 (libx264))
Press [q] to stop, [?] for help
frame=   94 fps=0.0 q=11.0 size=     539kB time=00:00:09.00 bitrate= 490.2kbits/s    
frame=  215 fps=213 q=9.0 size=     644kB time=00:00:21.10 bitrate= 250.0kbits/s    
frame=  327 fps=217 q=18.0 size=     999kB time=00:00:32.30 bitrate= 253.3kbits/s    
frame=  439 fps=218 q=9.0 size=    1095kB time=00:00:43.50 bitrate= 206.2kbits/s    
frame=  563 fps=224 q=9.0 size=    1271kB time=00:00:55.90 bitrate= 186.2kbits/s    
frame=  689 fps=228 q=9.0 size=    1274kB time=00:01:08.50 bitrate= 152.3kbits/s    
frame=  820 fps=233 q=9.0 size=    1449kB time=00:01:21.60 bitrate= 145.4kbits/s    
frame=  936 fps=233 q=9.0 size=    1451kB time=00:01:33.20 bitrate= 127.6kbits/s    
frame= 1020 fps=225 q=9.0 size=    1625kB time=00:01:41.60 bitrate= 131.0kbits/s    
frame= 1093 fps=217 q=9.0 size=    1627kB time=00:01:48.90 bitrate= 122.4kbits/s    
frame= 1165 fps=210 q=9.0 size=    1628kB time=00:01:56.10 bitrate= 114.9kbits/s    
frame= 1243 fps=206 q=9.0 size=    1630kB time=00:02:03.90 bitrate= 107.8kbits/s    
frame= 1320 fps=202 q=-1.0 Lsize=    1814kB time=00:02:12.00 bitrate= 112.6kbits/s    
video:1808kB audio:0kB subtitle:0kB other streams:0kB global headers:0kB muxing overhead: 0.331179%
[libx264 @ 0x1f157a0] frame I:6     Avg QP: 8.33  size:140468
[libx264 @ 0x1f157a0] frame P:1314  Avg QP: 9.49  size:   767
[libx264 @ 0x1f157a0] mb I  I16..4: 100.0%  0.0%  0.0%
[libx264 @ 0x1f157a0] mb P  I16..4:  0.6%  0.0%  0.0%  P16..4:  0.7%  0.0%  0.0%  0.0%  0.0%    skip:98.6%
[libx264 @ 0x1f157a0] coded y,uvDC,uvAC intra: 18.7% 12.2% 11.7% inter: 0.3% 0.3% 0.2%
[libx264 @ 0x1f157a0] i16 v,h,dc,p: 70% 28%  2%  1%
[libx264 @ 0x1f157a0] i8c dc,h,v,p: 77% 20%  3%  1%
[libx264 @ 0x1f157a0] kb/s:112.20
